<?xml version="1.0" encoding="UTF-8" standalone="no"?>
<svg
   xmlns:dc="http://purl.org/dc/elements/1.1/"
   xmlns:cc="http://creativecommons.org/ns#"
   xmlns:rdf="http://www.w3.org/1999/02/22-rdf-syntax-ns#"
   xmlns:svg="http://www.w3.org/2000/svg"
   xmlns="http://www.w3.org/2000/svg"
   xmlns:xlink="http://www.w3.org/1999/xlink"
   height="284.82635"
   width="445.03961"
   version="1.1"
   viewBox="0 0 445.03961 713.33975"
   xml:space="preserve"
   id="svg2"><title
     id="title11020">Notebook with blank screen</title><defs
     id="defs6"><linearGradient
       id="linearGradient22121"><stop
         offset="0"
         style="stop-color:#5f85a3"
         id="stop22123" /><stop
         offset=".25497"
         style="stop-color:#d8e0e6"
         id="stop22125" /><stop
         offset=".65187"
         style="stop-color:#516b97"
         id="stop22127" /><stop
         offset="1"
         style="stop-color:#abbdce"
         id="stop22129" /></linearGradient><filter
       style="color-interpolation-filters:sRGB"
       x="-0.035631001"
       y="-0.13108"
       width="1.0713"
       height="1.2622"
       id="filter22182"><feGaussianBlur
         stdDeviation="4.6783726"
         id="feGaussianBlur22184" /></filter><filter
       style="color-interpolation-filters:sRGB"
       x="-0.29497001"
       y="-1.1754"
       width="1.5899"
       height="3.3506999"
       id="filter23492"><feGaussianBlur
         stdDeviation="0.82130292"
         id="feGaussianBlur23494" /></filter><linearGradient
       x1="790.42999"
       y1="338.75"
       x2="993.04999"
       gradientUnits="userSpaceOnUse"
       xlink:href="#linearGradient22121"
       y2="436.48001"
       id="linearGradient11692" /><linearGradient
       x1="856.71997"
       y1="386.04001"
       gradientTransform="matrix(2.5753,0,0,2.5753,-1722.6,-401.23)"
       x2="913.98999"
       gradientUnits="userSpaceOnUse"
       xlink:href="#linearGradient22121"
       y2="413.89001"
       id="linearGradient11702" /><linearGradient
       x1="876.87"
       y1="412.75"
       gradientTransform="matrix(2.5753,0,0,2.5753,-1722.6,-401.23)"
       x2="876.87"
       gradientUnits="userSpaceOnUse"
       y2="426.10999"
       id="linearGradient11706"><stop
         offset="0"
         style="stop-color:#000000"
         id="stop22133" /><stop
         offset=".70721"
         style="stop-color:#121f3b"
         id="stop22139" /><stop
         offset="1"
         style="stop-color:#070d17"
         id="stop22135" /></linearGradient><linearGradient
       x1="819.53998"
       y1="214.03"
       gradientTransform="matrix(2.5753,0,0,2.5753,-1722.6,-401.23)"
       x2="974.91998"
       gradientUnits="userSpaceOnUse"
       y2="247.96001"
       id="linearGradient11713"><stop
         offset="0"
         style="stop-color:#000000"
         id="stop22103" /><stop
         offset=".19436"
         style="stop-color:#c3e5ff"
         id="stop22105" /><stop
         offset=".47558"
         style="stop-color:#4574c4"
         id="stop22107" /><stop
         offset="1"
         style="stop-color:#000000"
         id="stop22109" /></linearGradient><linearGradient
       x1="1282.1"
       y1="1665"
       gradientTransform="matrix(0.20153,0,0,0.20153,98.831,36.358)"
       x2="1667.4"
       gradientUnits="userSpaceOnUse"
       y2="1666.7"
       id="linearGradient2564"><stop
         offset="0"
         style="stop-color:#16191e"
         id="stop5106" /><stop
         offset=".16349"
         style="stop-color:#3a3d43"
         id="stop5116" /><stop
         offset=".23888"
         style="stop-color:#16191e"
         id="stop3708" /><stop
         offset=".46134"
         style="stop-color:#4a4f56"
         id="stop5112" /><stop
         offset=".66194"
         style="stop-color:#16191e"
         id="stop3710" /><stop
         offset=".75"
         style="stop-color:#36393f"
         id="stop5114" /><stop
         offset="1"
         style="stop-color:#16191e"
         id="stop5108" /></linearGradient><linearGradient
       x1="797.46997"
       y1="1651.3"
       gradientTransform="matrix(0.20153,0,0,0.20153,98.831,36.358)"
       x2="2124.1001"
       gradientUnits="userSpaceOnUse"
       y2="1651.3"
       id="linearGradient2566"><stop
         offset="0"
         style="stop-color:#000000"
         id="stop3398" /><stop
         offset="1"
         style="stop-color:#000000;stop-opacity:0"
         id="stop3400" /></linearGradient><linearGradient
       x1="2051"
       y1="1695.5"
       x2="2040.9"
       gradientUnits="userSpaceOnUse"
       xlink:href="#linearGradient3012"
       y2="1651.3"
       id="linearGradient2568" /><linearGradient
       id="linearGradient3012"><stop
         offset="0"
         style="stop-color:#53555a"
         id="stop3014" /><stop
         offset="1"
         style="stop-color:#e7e8ec"
         id="stop3016" /></linearGradient><linearGradient
       x1="1470.4"
       y1="1648.9"
       gradientTransform="translate(0.070804,0)"
       x2="1991.5"
       gradientUnits="userSpaceOnUse"
       y2="1648.9"
       id="linearGradient2570"><stop
         offset="0"
         style="stop-color:#9c9eaa"
         id="stop3392" /><stop
         offset=".16567"
         style="stop-color:#32373b"
         id="stop3412" /><stop
         offset=".20498"
         style="stop-color:#9c9ea9"
         id="stop3414" /><stop
         offset=".23579"
         style="stop-color:#363b3f"
         id="stop3416" /><stop
         offset=".74124"
         style="stop-color:#515257"
         id="stop3418" /><stop
         offset="1"
         style="stop-color:#4a4f53"
         id="stop3394" /></linearGradient><filter
       id="filter3052"><feGaussianBlur
         stdDeviation="0.89271179"
         id="feGaussianBlur3054" /></filter><filter
       id="filter3368"><feGaussianBlur
         stdDeviation="0.59514119"
         id="feGaussianBlur3370" /></filter><linearGradient
       x1="1470.4"
       y1="1648.9"
       gradientTransform="translate(0.070804,0)"
       x2="1991.5"
       gradientUnits="userSpaceOnUse"
       y2="1648.9"
       id="linearGradient2574"><stop
         offset="0"
         style="stop-color:#9c9eaa"
         id="stop3395" /><stop
         offset=".16567"
         style="stop-color:#32373b"
         id="stop3397" /><stop
         offset=".20498"
         style="stop-color:#868896"
         id="stop3399" /><stop
         offset=".23579"
         style="stop-color:#363b3f"
         id="stop3401" /><stop
         offset=".74124"
         style="stop-color:#515257"
         id="stop3403" /><stop
         offset="1"
         style="stop-color:#4a4f53"
         id="stop3405" /></linearGradient><linearGradient
       x1="1467"
       y1="1639.5"
       gradientTransform="matrix(0.45989,0,0,0.34382,-277.84,-196.49)"
       x2="1467"
       gradientUnits="userSpaceOnUse"
       y2="1622.3"
       id="linearGradient2576"><stop
         offset="0"
         style="stop-color:#b5b7bb"
         id="stop3436" /><stop
         offset="1"
         style="stop-color:#e5e6ea"
         id="stop3438" /></linearGradient><linearGradient
       x1="1455.6"
       y1="1638.9"
       gradientTransform="matrix(0.45989,0,0,0.34382,-277.84,-196.49)"
       x2="1455.6"
       gradientUnits="userSpaceOnUse"
       y2="1623.6"
       id="linearGradient2578"><stop
         offset="0"
         style="stop-color:#888b95"
         id="stop3444" /><stop
         offset="1"
         style="stop-color:#f0f1f5"
         id="stop3446" /></linearGradient><linearGradient
       x1="1496.6"
       y1="1399.2"
       gradientTransform="translate(0,220.22)"
       x2="1496.6"
       gradientUnits="userSpaceOnUse"
       y2="1421.7"
       id="linearGradient2608"><stop
         offset="0"
         style="stop-color:#979aa4"
         id="stop4263" /><stop
         offset="1"
         style="stop-color:#979aa4;stop-opacity:0"
         id="stop4265" /></linearGradient><linearGradient
       x1="1364.7"
       y1="1540.1"
       x2="1367.4"
       gradientUnits="userSpaceOnUse"
       y2="1342.2"
       id="linearGradient2610"><stop
         offset="0"
         style="stop-color:#979aa4"
         id="stop2963" /><stop
         offset="1"
         style="stop-color:#50525a"
         id="stop2965" /></linearGradient><linearGradient
       x1="1393"
       y1="1621"
       x2="1393"
       gradientUnits="userSpaceOnUse"
       y2="1503.5"
       id="linearGradient3196"><stop
         offset="0"
         style="stop-color:#4c5059"
         id="stop2826" /><stop
         offset="1"
         style="stop-color:#818590"
         id="stop2828" /></linearGradient><clipPath
       id="clipPath2834"><path
         d="m 1345.5,1395.2 233.3,0 c 1,0 1.8,0.8 1.8,1.8 l 0,222.3 c 0,1 -0.8,1.8 -1.8,1.8 -77.6,-4.4 -155.6,-3.6 -233.3,0 -1,0 -1.8,-0.8 -1.8,-1.8 l 0,-222.3 c 0,-1 0.8,-1.8 1.8,-1.8 z"
         style="fill:url(#linearGradient3043)"
         id="use2836" /></clipPath><filter
       id="filter2820"><feGaussianBlur
         stdDeviation="0.49668993"
         id="feGaussianBlur2822" /></filter><radialGradient
       r="2.0625"
       cx="572.38"
       cy="306.60999"
       gradientUnits="userSpaceOnUse"
       id="radialGradient3200"><stop
         offset="0"
         style="stop-color:#cccccc"
         id="stop2988" /><stop
         offset="1"
         style="stop-color:#c1c1c1;stop-opacity:0"
         id="stop2990" /></radialGradient><linearGradient
       x1="978.64001"
       y1="1373.6"
       gradientTransform="translate(-244,-56.959)"
       x2="978.64001"
       gradientUnits="userSpaceOnUse"
       y2="164.23"
       id="linearGradient2519"><stop
         offset="0"
         style="stop-color:#1d2025"
         id="stop2912" /><stop
         offset="1"
         style="stop-color:#31343b"
         id="stop2914" /></linearGradient><linearGradient
       x1="1461.9"
       y1="1332.2"
       gradientTransform="translate(-244,-56.959)"
       x2="1461.9"
       gradientUnits="userSpaceOnUse"
       xlink:href="#linearGradient2894"
       y2="216.14"
       id="linearGradient2521" /><linearGradient
       id="linearGradient2894"><stop
         offset="0"
         style="stop-color:#5e6169"
         id="stop2896" /><stop
         offset="1"
         style="stop-color:#1c2125"
         id="stop2898" /></linearGradient><linearGradient
       x1="522.54999"
       y1="160.91"
       gradientTransform="translate(-244,-56.959)"
       x2="1418.9"
       gradientUnits="userSpaceOnUse"
       spreadMethod="reflect"
       y2="160.91"
       id="linearGradient2523"><stop
         offset="0"
         style="stop-color:#abafb8"
         id="stop2922" /><stop
         offset="1"
         style="stop-color:#bebdc5"
         id="stop2924" /></linearGradient><linearGradient
       x1="512.04999"
       y1="160.91"
       gradientTransform="translate(-244,1175.6)"
       x2="1418.9"
       gradientUnits="userSpaceOnUse"
       spreadMethod="reflect"
       y2="160.91"
       id="linearGradient2525"><stop
         offset="0"
         style="stop-color:#8f919d"
         id="stop2934" /><stop
         offset="1"
         style="stop-color:#878a95"
         id="stop2936" /></linearGradient><radialGradient
       r="883.59003"
       gradientTransform="matrix(7.8634e-8,1.0762,-1.2042,8.7983e-8,1094.5,-704.37)"
       cx="809.29999"
       cy="-95.417999"
       gradientUnits="userSpaceOnUse"
       xlink:href="#linearGradient2894"
       id="radialGradient2527" /><linearGradient
       x1="1474.5"
       y1="165.47"
       gradientTransform="translate(-244,1175.6)"
       x2="1474.5"
       gradientUnits="userSpaceOnUse"
       spreadMethod="reflect"
       y2="159.47"
       id="linearGradient2545"><stop
         offset="0"
         style="stop-color:#575a62;stop-opacity:.99967"
         id="stop3577" /><stop
         offset="1"
         style="stop-color:#878a95;stop-opacity:0"
         id="stop3579" /></linearGradient><linearGradient
       x1="1474.5"
       y1="165"
       gradientTransform="translate(-244,1175.6)"
       x2="1474.5"
       gradientUnits="userSpaceOnUse"
       y2="155.99001"
       id="linearGradient2547"><stop
         offset="0"
         style="stop-color:#6b6f7a;stop-opacity:0"
         id="stop3464" /><stop
         offset="1"
         style="stop-color:#ebebed"
         id="stop3466" /></linearGradient><linearGradient
       y2="1651.3"
       x2="2040.9"
       y1="1695.5"
       x1="2051"
       gradientUnits="userSpaceOnUse"
       id="linearGradient6803"
       xlink:href="#linearGradient3012" /><radialGradient
       r="2.0625"
       cy="306.60999"
       cx="572.38"
       gradientUnits="userSpaceOnUse"
       id="radialGradient4320"
       xlink:href="#radialGradient3200" /></defs><rect
     x="-85.588242"
     y="804.17285"
     width="453.54001"
     height="673.22998"
     ry="0.72368997"
     rx="0.34492999"
     style="display:none;fill:#f9f9f9"
     id="rect4595-0" /><rect
     x="438.82178"
     y="804.17285"
     width="453.54001"
     height="673.22998"
     ry="0.72368997"
     rx="0.34492999"
     style="display:none;fill:#f9f9f9"
     id="rect4595-9-4" /><rect
     x="-90.898239"
     y="1572.5627"
     width="453.54001"
     height="673.22998"
     ry="0.72368997"
     rx="0.34492999"
     style="display:none;fill:#f9f9f9"
     id="rect4595-99" /><rect
     x="433.51178"
     y="1572.5627"
     width="453.54001"
     height="673.22998"
     ry="0.72368997"
     rx="0.34492999"
     style="display:none;fill:#f9f9f9"
     id="rect4595-9-0" /><g
     transform="matrix(0.43401884,0,0,0.43401884,-378.47468,321.88694)"
     id="g6386"><flowRoot
       id="flowRoot4386"
       xml:space="preserve"
       style="font-size:40px;font-family:'Bitstream Vera Sans';fill:#000000"
       transform="translate(272.6,770.68)"><flowRegion
         id="flowRegion4388"><rect
           id="rect4390"
           y="237.89"
           width="131.39"
           x="885.16998"
           height="116.18" /></flowRegion><flowPara
         id="flowPara4392" /></flowRoot><g
       id="g23401"
       transform="matrix(2.5753,0,0,2.5753,-1722.6,-401.23)"><rect
         id="rect23336"
         style="color:#000000;fill:#000000"
         height="12.418"
         width="33.855999"
         y="320.20001"
         x="779.94" /><rect
         id="rect23336-1"
         style="color:#000000;fill:#000000"
         height="12.418"
         width="33.855999"
         y="320.20001"
         x="779.94" /><rect
         id="rect23336-0"
         style="color:#000000;fill:#000000"
         height="12.418"
         width="33.855999"
         y="320.20001"
         x="939.94" /><rect
         id="rect23336-1-9"
         style="color:#000000;fill:#000000"
         height="12.418"
         width="33.855999"
         y="320.20001"
         x="939.94" /></g><rect
       id="rect21217"
       style="color:#000000;fill:url(#linearGradient11713);stroke:#000000;stroke-width:1.60950005"
       rx="27.375"
       ry="27.375"
       height="402.48001"
       width="605.51001"
       y="36.108002"
       x="232.83" /><rect
       id="rect21217-8"
       style="color:#000000;fill:#ffffff;stroke:#000000;stroke-width:1.60950005"
       height="305.41"
       width="513"
       y="84.647003"
       x="279.07999" /><path
       id="rect21217-7"
       style="color:#000000;fill:url(#linearGradient11706)"
       d="m 260.2,448.15 550.76,0 c 15.166,0 25.816,8.6237 32.526,22.224 l 97.86,198.37 c 6.7097,13.601 -1.908,27.375 -17.074,27.375 l -777.38,0 c -15.166,0 -23.784,-13.774 -17.074,-27.375 l 97.861,-198.37 c 6.7097,-13.601 17.36,-22.224 32.526,-22.224 z" /><path
       id="rect21217-7-2"
       style="color:#000000;opacity:0.31225;fill:url(#linearGradient11692);filter:url(#filter22182)"
       transform="matrix(2.5423,0,0,2.5423,-1693.7,-388.95)"
       d="m 769.94,329.82 213.86,0 c 5.889,0 10.025,3.3486 12.63,8.6299 l 38,77.028 -315.12,0 38,-77.028 c 2.6054,-5.2813 6.7409,-8.6299 12.63,-8.6299 z" /><path
       id="rect21217-7-0"
       style="color:#000000;fill:url(#linearGradient11702);stroke:#000000;stroke-width:0.80476999"
       d="m 454.52,592.94 162.12,0 c 3.756,0 7.6642,1.7686 8.0554,5.5042 l 6.2252,59.43 c 0.39129,3.7356 -0.47254,6.7798 -4.2286,6.7798 l -182.23,0 c -3.756,0 -4.6199,-3.0443 -4.2286,-6.7798 l 6.2252,-59.43 c 0.39129,-3.7356 4.2994,-5.5042 8.0554,-5.5042 z" /><path
       id="path23215"
       style="color:#000000;text-indent:0;text-transform:none;block-progression:tb;fill:#000000;stroke:#000000;stroke-width:0.96573001;stroke-linecap:round;stroke-linejoin:round"
       d="m 252.55,465.68 c -0.39484,0 -1.4191,0.21323 -1.5291,0.48286 l -45.47,111.22 c -0.36806,0.89906 0.42796,1.1267 0.7243,1.1267 l 535.74,0 2.2534,9.3354 c 0,0 0.7593,0.9647 1.2876,0.96573 l 123.29,0.2413 c 0.8001,0 1.0989,-0.80864 0.9657,-1.1267 l -50.701,-121.76 c -0.1442,-0.34596 -0.4666,-0.48286 -0.7241,-0.48286 l -565.84,0 z m -0.16096,1.6095 30.984,0 -2.7362,8.2892 -31.628,0 3.38,-8.2892 z m 32.674,0 32.271,0 -2.2534,8.2892 -32.754,0 2.7362,-8.2892 z m 33.961,0 33.961,0 -1.851,8.2892 -34.283,0 2.1729,-8.2892 z m 35.652,0 34.686,0 -1.4486,8.2892 -35.088,0 1.851,-8.2892 z m 36.376,0 35.652,0 -1.1267,8.2892 -35.973,0 1.4486,-8.2892 z m 37.261,0 34.686,0 -0.64381,8.2892 -35.169,0 1.1267,-8.2892 z m 36.295,0 33.881,0 -0.2413,8.2892 -34.283,0 0.64382,-8.2892 z m 35.491,0 34.686,0 0,8.2892 -34.927,0 0.2413,-8.2892 z m 36.295,0 35.652,0 0.2413,8.2892 -35.893,0 0,-8.2892 z m 37.261,0 33.881,0 0.64382,8.2892 -34.283,0 -0.24131,-8.2892 z m 35.491,0 34.686,0 1.1267,8.2892 -35.169,0 -0.64382,-8.2892 z m 36.295,0 35.652,0 1.4486,8.2892 -35.973,0 -1.1267,-8.2892 z m 37.342,0 34.686,0 1.851,8.2892 -35.088,0 -1.4486,-8.2892 z m 36.376,0 33.962,0 2.1729,8.2892 -34.283,0 -1.851,-8.2892 z m 35.571,0 32.352,0 2.7363,8.2892 -32.835,0 -2.2534,-8.2892 z m 34.042,0 29.052,0 3.4607,8.2892 -29.777,0 -2.7362,-8.2892 z m -540.41,9.8987 42.17,0 -4.5872,13.842 -43.297,0 5.7139,-13.842 z m 43.699,0 32.915,0 -3.702,13.842 -33.801,0 4.5872,-13.842 z m 34.605,0 34.444,0 -3.0581,13.842 -35.088,0 3.702,-13.842 z m 36.134,0 35.169,0 -2.4143,13.842 -35.812,0 3.0581,-13.842 z m 36.859,0 35.973,0 -1.851,13.842 -36.537,0 2.4143,-13.842 z m 37.583,0 35.33,0 -1.0462,13.842 -36.134,0 1.851,-13.842 z m 36.939,0 34.283,0 -0.40239,13.842 -34.927,0 1.0462,-13.842 z m 35.893,0 35.008,0 0,13.842 -35.41,0 0.40239,-13.842 z m 36.617,0 35.973,0 0.40238,13.842 -36.376,0 0,-13.842 z m 37.583,0 34.283,0 1.0462,13.842 -34.927,0 -0.40239,-13.842 z m 35.893,0 35.33,0 1.851,13.842 -36.134,0 -1.0462,-13.842 z m 36.939,0 35.973,0 2.4143,13.842 -36.537,0 -1.851,-13.842 z m 37.663,0 35.169,0 3.0581,13.842 -35.812,0 -2.4144,-13.842 z m 36.859,0 58.748,0 4.5872,13.842 -60.278,0 -3.0581,-13.842 z m 60.438,0 29.857,0 5.7943,13.842 -31.064,0 -4.5873,-13.842 z m -550.06,15.452 51.425,0 -4.2653,16.015 -53.759,0 6.5992,-16.015 z m 53.115,0 35.088,0 -3.541,16.015 -35.812,0 4.2653,-16.015 z m 36.778,0 35.973,0 -2.8167,16.015 -36.698,0 3.541,-16.015 z m 37.583,0 36.617,0 -2.1729,16.015 -37.181,0 2.7362,-16.015 z m 38.227,0 36.215,0 -1.2072,16.015 -37.1,0 2.0924,-16.015 z m 37.824,0 35.008,0 -0.48286,16.015 -35.732,0 1.2072,-16.015 z m 36.617,0 35.491,0 0,16.015 -35.973,0 0.48286,-16.015 z m 37.1,0 36.456,0 0.48286,16.015 -36.939,0 0,-16.015 z m 38.066,0 35.008,0 1.2072,16.015 -35.732,0 -0.48286,-16.015 z m 36.617,0 36.215,0 2.0924,16.015 -37.1,0 -1.2072,-16.015 z m 37.824,0 36.617,0 2.7363,16.015 -37.181,0 -2.1729,-16.015 z m 38.227,0 35.973,0 3.541,16.015 -36.698,0 -2.8167,-16.015 z m 37.663,0 35.088,0 4.2653,16.015 -35.812,0 -3.541,-16.015 z m 36.617,0 51.264,0 12.152,36.617 -36.376,0 -5.553,-20.602 -17.222,0 -4.2653,-16.015 z m 52.954,0 31.225,0 6.6798,16.015 -32.594,0 -5.3114,-16.015 z m -562.46,17.625 71.142,0 -5.0701,18.993 -73.798,0 7.7258,-18.993 z m 72.832,0 35.893,0 -4.1848,18.993 -36.778,0 5.0701,-18.993 z m 37.583,0 36.778,0 -3.2996,18.993 -37.663,0 4.1848,-18.993 z m 38.388,0 37.342,0 -2.5753,18.993 -38.066,0 3.2996,-18.993 z m 38.951,0 37.261,0 -1.4486,18.993 -38.388,0 2.5753,-18.993 z m 38.871,0 35.732,0 -0.56334,18.993 -36.617,0 1.4486,-18.993 z m 37.342,0 36.054,0 0,18.993 -36.617,0 0.56334,-18.993 z m 37.663,0 37.02,0 0.56334,18.993 -37.583,0 0,-18.993 z m 38.629,0 35.732,0 1.4486,18.993 -36.617,0 -0.56334,-18.993 z m 37.342,0 37.261,0 2.5753,18.993 -38.388,0 -1.4486,-18.993 z m 38.871,0 37.342,0 3.2996,18.993 -38.066,0 -2.5753,-18.993 z m 38.951,0 36.778,0 4.1848,18.993 -37.663,0 -3.2996,-18.993 z m 38.468,0 35.893,0 5.07,18.993 -36.778,0 -4.1849,-18.993 z m 74.442,0 32.674,0 7.9671,18.993 -34.283,0 -6.3575,-18.993 z m -576.78,20.602 55.127,0 -6.5187,20.924 -57.139,0 8.5306,-20.924 z m 56.737,0 37.02,0 -5.5529,20.924 -37.905,0 6.4382,-20.924 z m 38.71,0 36.859,0 -4.6677,20.924 -37.744,0 5.5529,-20.924 z m 38.549,0 37.824,0 -3.6215,20.924 -38.79,0 4.5872,-20.924 z m 39.434,0 38.066,0 -2.8167,20.924 -38.871,0 3.6215,-20.924 z m 39.675,0 38.549,0 -1.6096,20.924 -39.756,0 2.8167,-20.924 z m 40.158,0 36.617,0 -0.64382,20.924 -37.583,0 1.6095,-20.924 z m 38.227,0 36.698,0 0,20.924 -37.342,0 0.64382,-20.924 z m 38.307,0 37.663,0 0.64382,20.924 -38.307,0 0,-20.924 z m 39.273,0 36.617,0 1.6096,20.924 -37.583,0 -0.64382,-20.924 z m 38.227,0 38.549,0 2.8167,20.924 -39.756,0 -1.6095,-20.924 z m 40.158,0 38.066,0 3.6214,20.924 -38.871,0 -2.8167,-20.924 z m 39.675,0 37.824,0 4.5872,20.924 -38.79,0 -3.6215,-20.924 z m 39.514,0 55.288,0 7.0014,20.924 -57.622,0 -4.6677,-20.924 z m 56.978,0 34.444,0 8.7722,20.924 -36.215,0 -7.0017,-20.924 z m -592.8,22.534 37.502,0 -7.8063,23.499 -39.353,0 9.6573,-23.499 z m 39.273,0 37.985,0 -6.2772,23.499 -39.595,0 7.8868,-23.499 z m 39.675,0 37.824,0 -5.231,23.499 -38.871,0 6.2772,-23.499 z m 39.514,0 38.871,0 -4.0239,23.499 -40.078,0 5.231,-23.499 z m 40.48,0 237.89,0 1.7705,23.499 -243.77,0 4.1044,-23.499 z m 239.5,0 39.836,0 3.2191,23.499 -41.285,0 -1.7705,-23.499 z m 41.526,0 38.951,0 4.1043,23.499 -39.917,0 -3.1386,-23.499 z m 40.561,0 38.871,0 5.2311,23.499 -40.078,0 -4.0239,-23.499 z m 40.561,0 37.824,0 4.8287,16.256 -39.112,0 -3.5411,-16.256 z m 39.514,0 37.985,0 5.2311,16.256 -38.388,0 -4.8286,-16.256 z m 39.756,0 36.295,0 6.6795,16.256 -37.583,0 -5.3921,-16.256 z m -75.407,17.625 39.032,0 4.8287,16.256 -40.319,0 -3.541,-16.256 z m 40.722,0 38.549,0 5.2312,16.256 -38.951,-0.0803 -4.8287,-16.176 z m 40.4,0 37.583,0 6.6798,16.256 -38.871,0 -5.3919,-16.256 z" /><g
       id="g23410"
       transform="matrix(2.5753,0,0,2.5753,-1722.6,-401.23)"><circle
         r="2.7661524"
         cy="179.10837"
         cx="872.72107"
         id="path23285"
         style="color:#000000;fill:#000000"
         transform="matrix(0.78439,0,0,0.78439,192.32,38.618)" /><circle
         r="2.7661524"
         cy="179.10837"
         cx="872.72107"
         id="path23285-6"
         style="color:#000000;fill:none;stroke:#000000;stroke-width:0.2001"
         transform="matrix(1.7708,0,0,1.7708,-668.54,-138.06)" /><circle
         r="2.7661524"
         cy="179.10837"
         cx="872.72107"
         id="path23285-0"
         style="color:#000000;fill:#ffffff"
         transform="matrix(0.17328,0,0,0.17328,725.14,147.64)" /></g><path
       id="rect23443"
       style="color:#000000;fill:#48ff27;stroke:#48ff27;stroke-width:1.63240004;stroke-linecap:round;stroke-linejoin:round"
       d="m 800.87,457.29 11.66,0 0.7427,2.0827 -11.707,0 -0.6957,-2.0827 z" /><path
       id="rect23443-0"
       style="color:#000000;opacity:0.98999999;fill:#00ff00;stroke:#00ff00;stroke-width:1.06299996;stroke-linecap:round;stroke-linejoin:round;filter:url(#filter23492)"
       transform="matrix(2.2565,0,-0.76892,1.986,-1146.7,-220.45)"
       d="m 979.03,340.91 5.7011,0 0.79858,1.677 -5.8838,0 -0.61593,-1.677 z" /></g><metadata
     id="metadata60"><rdf:RDF><cc:Work><dc:format>image/svg+xml</dc:format><dc:type
           rdf:resource="http://purl.org/dc/dcmitype/StillImage" /><cc:license
           rdf:resource="http://creativecommons.org/publicdomain/zero/1.0/" /><dc:publisher><cc:Agent
             rdf:about="http://openclipart.org/"><dc:title>Openclipart</dc:title></cc:Agent></dc:publisher><dc:title>Notebook</dc:title><dc:date>2011-12-30T16:35:54</dc:date><dc:description>A notebook in perspective with a blank screen and a detailed shaded surface, keyboard, touchpad and a webcam.</dc:description><dc:source>https://openclipart.org/detail/166714/notebook-by-onsemeliot</dc:source><dc:creator><cc:Agent><dc:title>Onsemeliot</dc:title></cc:Agent></dc:creator><dc:subject><rdf:Bag><rdf:li>blank screen</rdf:li><rdf:li>color</rdf:li><rdf:li>computer</rdf:li><rdf:li>keyboard</rdf:li><rdf:li>laptop</rdf:li><rdf:li>notebook</rdf:li><rdf:li>pc</rdf:li><rdf:li>perspective</rdf:li><rdf:li>shaded</rdf:li><rdf:li>touchpad</rdf:li></rdf:Bag></dc:subject></cc:Work><cc:License
         rdf:about="http://creativecommons.org/publicdomain/zero/1.0/"><cc:permits
           rdf:resource="http://creativecommons.org/ns#Reproduction" /><cc:permits
           rdf:resource="http://creativecommons.org/ns#Distribution" /><cc:permits
           rdf:resource="http://creativecommons.org/ns#DerivativeWorks" /></cc:License></rdf:RDF></metadata><g
     id="g6409"
     transform="matrix(1.2267114,0,0,1.2267114,129.69789,329.61224)"><path
       id="path4533"
       style="fill:url(#linearGradient2564);fill-rule:evenodd;stroke:url(#linearGradient2566);stroke-width:0.20152999px"
       transform="matrix(0.97654,0,0,0.97654,-193.05,-62.533)"
       d="m 526.81,374.78 -26.73,6.02 -2.45,0 -77.38,-7.75 c -2.45,-0.06 -5.01,-0.25 -7.49,0.03 -10.16,1.15 -28.16,1.24 -39.25,-0.1 l -7.77,0.07 -79.09,7.68 -2.21,0 -24.79,-5.63 3.92,-4.63 c 1.72,-2.04 4.2,-2.7 7.55,-3 l 91.27,-8.05 c 1.55,-0.13 2.96,-0.88 4.21,-1.92 l 21.16,0 35.98,0 c 1.3,1.14 2.89,1.95 5.06,2.14 l 84.55,7.44 c 4.53,0.4 7.84,0.74 10.32,3.81 l 3.14,3.89 z" /><g
       id="use4535"
       transform="matrix(-0.1968,0,0,0.1968,478.07,-27.028)"><path
         id="path3029"
         style="fill:url(#linearGradient6803);fill-rule:evenodd;stroke-width:1px"
         d="m 2123.6,1677.2 -132.6,31.9 -12.2,0 c -13.3,-23 -30.8,-28.3 -55.6,-30.6 l -328.3,-29.8 c -12.1,-1.2 -24.9,-1.3 -37.2,0.1 -23.1,2.6 -66.9,4.3 -99.2,4.5 l -0.1,-61.8 153.8,0 c 6.4,5.7 14.3,9.7 25.1,10.6 l 419.6,37 c 22.4,1.9 38.8,3.6 51.2,18.9 l 15.5,19.2 z" /><path
         id="path3031"
         style="fill:url(#linearGradient2570);fill-rule:evenodd;stroke-width:1px"
         d="m 1991.2,1709.2 -12.8,0 c -13.3,-23.1 -30.3,-26.4 -55.2,-28.7 L 1595,1650.7 c -12.1,-1.1 -24.9,-1.3 -37.2,0.1 -23.1,2.6 -69.7,3.9 -99.2,4.5 l 0,-12.8 90.5,-3.1 c 16.2,-0.6 34.3,-3.5 47.2,-2.4 l 332.9,29.1 c 22.4,1.9 41.2,10.3 51.7,26.9 l 10.3,16.2 z" /><path
         id="path3033"
         style="fill:none;stroke:#ffffff;stroke-width:1px;filter:url(#filter3052)"
         d="m 1460.5,1642.5 88.5,-3.1 c 16.2,-0.6 34.3,-3.5 47.2,-2.4 l 332.9,29.1 c 22.5,1.9 41.2,10.3 51.7,26.9 l 10.3,16.2" /><path
         id="path3035"
         style="fill:none;stroke:#ffffff;stroke-width:1.20000005;filter:url(#filter3368)"
         d="m 1458.3,1642.5 92.6,-3.1 c 16.1,-0.6 34.2,-3.5 47.1,-2.4 l 332.9,29.1 c 22.5,1.9 41.2,10.3 51.8,26.9 l 10.3,16.2" /></g><g
       id="g4537"
       transform="matrix(0.1968,0,0,0.1968,-96.541,-27.028)"><path
         id="path4539"
         style="fill:url(#linearGradient2568);fill-rule:evenodd;stroke-width:1px"
         d="m 2123.6,1677.2 -132.6,31.9 -12.2,0 c -13.3,-23 -30.8,-28.3 -55.6,-30.6 l -328.3,-29.8 c -12.1,-1.2 -24.9,-1.3 -37.2,0.1 -23.1,2.6 -66.9,4.3 -99.2,4.5 l -0.1,-61.8 153.8,0 c 6.4,5.7 14.3,9.7 25.1,10.6 l 419.6,37 c 22.4,1.9 38.8,3.6 51.2,18.9 l 15.5,19.2 z" /><path
         id="path4541"
         style="fill:url(#linearGradient2574);fill-rule:evenodd;stroke-width:1px"
         d="m 1991.2,1709.2 -12.8,0 c -13.3,-23.1 -30.3,-26.4 -55.2,-28.7 L 1595,1650.7 c -12.1,-1.1 -24.9,-1.3 -37.2,0.1 -23.1,2.6 -69.7,3.9 -99.2,4.5 l 0,-12.8 90.5,-3.1 c 16.2,-0.6 34.3,-3.5 47.2,-2.4 l 332.9,29.1 c 22.4,1.9 41.2,10.3 51.7,26.9 l 10.3,16.2 z" /><path
         id="path4543"
         style="fill:none;stroke:#ffffff;stroke-width:1px;filter:url(#filter3052)"
         d="m 1460.5,1642.5 88.5,-3.1 c 16.2,-0.6 34.3,-3.5 47.2,-2.4 l 332.9,29.1 c 22.5,1.9 41.2,10.3 51.7,26.9 l 10.3,16.2" /><path
         id="path4545"
         style="fill:none;stroke:#ffffff;stroke-width:1.20000005;filter:url(#filter3368)"
         d="m 1458.3,1642.5 92.6,-3.1 c 16.1,-0.6 34.2,-3.5 47.1,-2.4 l 332.9,29.1 c 22.5,1.9 41.2,10.3 51.8,26.9 l 10.3,16.2" /></g><path
       id="path4547"
       style="fill:url(#linearGradient2576);stroke:url(#linearGradient2578);stroke-width:0.20152999"
       transform="matrix(0.97654,0,0,0.97654,-193.05,-62.533)"
       d="m 420.27,362.9 c 0,1.8 -11.73,3.26 -26.21,3.26 -14.48,0 -26.21,-1.46 -26.21,-3.26 0,-1.81 11.73,-3.27 26.21,-3.27 14.48,0 26.21,1.46 26.21,3.27 z" /><path
       id="path2967"
       style="fill:url(#linearGradient2608)"
       transform="matrix(0.1968,0,0,0.1968,-96.541,-27.028)"
       d="m 1345.5,1615.4 233.3,0 c 1,0 1.8,0.8 1.8,1.8 l 0,41.6 c 0,1.1 -236.9,-17.9 -236.9,0 l 0,-41.6 c 0,-1 0.8,-1.8 1.8,-1.8 z" /><path
       id="path4551"
       style="fill:url(#linearGradient2610)"
       transform="matrix(0.1968,0,0,0.1968,-96.541,-27.028)"
       d="m 1345.5,1395.2 233.3,0 c 1,0 1.8,0.8 1.8,1.8 l 0,222.3 c 0,1 -0.8,1.8 -1.8,1.8 -77.6,-4.4 -155.6,-3.6 -233.3,0 -1,0 -1.8,-0.8 -1.8,-1.8 l 0,-222.3 c 0,-1 0.8,-1.8 1.8,-1.8 z" /><path
       id="path4553"
       d="m 1345.5,1395.2 233.3,0 c 1,0 1.8,0.8 1.8,1.8 l 0,224.3 c 0,1 -0.8,1.8 -1.8,1.8 -78.7,-4.1 -156.5,-4.3 -233.3,0 -1,0 -1.8,-0.8 -1.8,-1.8 l 0,-224.3 c 0,-1 0.8,-1.8 1.8,-1.8 z"
       style="fill:none;stroke:url(#linearGradient3196);stroke-width:4;filter:url(#filter2820)"
       transform="matrix(0.1968,0,0,0.1968,-96.541,-27.028)"
       clip-path="url(#clipPath2834)" /><path
       id="path2984"
       style="fill:url(#radialGradient4320);stroke-width:1.25;stroke-linecap:round;stroke-linejoin:round;stroke-dashoffset:0.5"
       d="m 574.44,306.61 c 0,0.34 -0.08,0.65 -0.22,0.93 -1.12,0.63 -2.03,0.78 -3.81,-0.3 -0.06,-0.2 -0.1,-0.41 -0.1,-0.63 0.44,-2 1.63,0.76 3.84,-1.05 0.18,0.31 0.29,0.67 0.29,1.05 z"
       transform="matrix(0.4185,-0.4185,0.69052,0.69052,-86.648,262.44)" /><use
       id="use3342"
       xlink:href="#path2984"
       transform="matrix(-1,0,0,1,381.56,4.1606e-7)"
       height="463.36414"
       width="825.92938"
       y="0"
       x="0" /><rect
       id="rect4555"
       style="fill:url(#linearGradient2519)"
       transform="matrix(0.1968,0,0,0.1968,-47.208,-15.818)"
       rx="5.3441"
       ry="5.3441"
       height="1223"
       width="1893.6"
       y="108.04"
       x="262.62" /><rect
       id="rect4557"
       style="fill:url(#linearGradient2521)"
       transform="matrix(0.1968,0,0,0.1968,-47.208,-15.818)"
       rx="5.3441"
       ry="5.3441"
       height="1118.3"
       width="1779.6"
       y="160.39999"
       x="319.62" /><rect
       id="rect4559"
       style="fill:url(#linearGradient2523)"
       transform="matrix(0.1968,0,0,0.1968,-47.208,-15.818)"
       rx="1.8441"
       ry="1.8441"
       height="9"
       width="1890.6"
       y="99.041"
       x="264.12" /><rect
       id="rect4561"
       style="fill:url(#linearGradient2525)"
       transform="matrix(0.1968,0,0,0.1968,-47.208,-15.818)"
       rx="1.8441"
       ry="1.8441"
       height="9"
       width="1890.6"
       y="1331.6"
       x="264.12" /><rect
       id="rect4563"
       style="fill:url(#radialGradient2527)"
       transform="matrix(0.1968,0,0,0.1968,-47.208,-15.818)"
       rx="5.3441"
       ry="5.3441"
       height="1105.8"
       width="1766.2"
       y="166.62"
       x="326.34" /><rect
       id="rect4581"
       style="fill:url(#linearGradient2545)"
       transform="matrix(0.1968,0,0,0.1968,-47.208,-15.818)"
       rx="1.8441"
       ry="1.8441"
       height="9"
       width="1890.6"
       y="1331.6"
       x="264.12" /><rect
       id="rect4267"
       style="opacity:0.65639002;fill:url(#linearGradient2547)"
       transform="matrix(0.1968,0,0,0.1968,-47.208,-15.818)"
       rx="1.8441"
       ry="1.8441"
       height="9"
       width="1890.6"
       y="1331.6"
       x="264.12" /></g><rect
     y="15.345517"
     x="-310.3367"
     height="169.45911"
     width="246.71254"
     id="rect6815"
     style="fill:none;fill-opacity:1;fill-rule:evenodd;stroke:#000000;stroke-width:4.34661484;stroke-miterlimit:4;stroke-dasharray:none;stroke-opacity:1" /><rect
     y="15.345517"
     x="-34.965656"
     height="169.45911"
     width="246.71254"
     id="rect6815-9"
     style="fill:none;fill-opacity:1;fill-rule:evenodd;stroke:#000000;stroke-width:4.34661484;stroke-miterlimit:4;stroke-dasharray:none;stroke-opacity:1" /><rect
     y="15.345517"
     x="240.40533"
     height="169.45911"
     width="246.71254"
     id="rect6815-5"
     style="fill:none;fill-opacity:1;fill-rule:evenodd;stroke:#000000;stroke-width:4.34661484;stroke-miterlimit:4;stroke-dasharray:none;stroke-opacity:1" /><rect
     y="15.345517"
     x="515.77643"
     height="169.45911"
     width="246.71254"
     id="rect6815-57"
     style="fill:none;fill-opacity:1;fill-rule:evenodd;stroke:#000000;stroke-width:4.34661484;stroke-miterlimit:4;stroke-dasharray:none;stroke-opacity:1" /><rect
     y="4.6707206"
     x="-324.07858"
     height="191.2652"
     width="269.50427"
     id="rect6852"
     style="fill:none;fill-opacity:1;fill-rule:evenodd;stroke:#ff0000;stroke-width:4.33247185;stroke-miterlimit:4;stroke-dasharray:none;stroke-opacity:1" /><rect
     y="4.6722007"
     x="-44.530735"
     height="191.26222"
     width="819.67303"
     id="rect6854"
     style="fill:none;fill-opacity:1;fill-rule:evenodd;stroke:#ff0000;stroke-width:4.33545637;stroke-miterlimit:4;stroke-dasharray:none;stroke-opacity:1" /><text
     id="text6856"
     y="117.96062"
     x="-203.0211"
     style="font-style:normal;font-weight:normal;font-size:49.06845474px;line-height:125%;font-family:Sans;letter-spacing:0px;word-spacing:0px;fill:#000000;fill-opacity:1;stroke:none;stroke-width:1px;stroke-linecap:butt;stroke-linejoin:miter;stroke-opacity:1"
     xml:space="preserve"><tspan
       y="117.96062"
       x="-203.0211"
       id="tspan6858">1</tspan></text>
<text
     id="text6856-5"
     y="117.96062"
     x="72.349915"
     style="font-style:normal;font-weight:normal;font-size:49.06845474px;line-height:125%;font-family:Sans;letter-spacing:0px;word-spacing:0px;fill:#000000;fill-opacity:1;stroke:none;stroke-width:1px;stroke-linecap:butt;stroke-linejoin:miter;stroke-opacity:1"
     xml:space="preserve"><tspan
       y="117.96062"
       x="72.349915"
       id="tspan6858-1">2</tspan></text>
<text
     id="text6856-0"
     y="117.96062"
     x="348.24802"
     style="font-style:normal;font-weight:normal;font-size:49.06845474px;line-height:125%;font-family:Sans;letter-spacing:0px;word-spacing:0px;fill:#000000;fill-opacity:1;stroke:none;stroke-width:1px;stroke-linecap:butt;stroke-linejoin:miter;stroke-opacity:1"
     xml:space="preserve"><tspan
       y="117.96062"
       x="348.24802"
       id="tspan6858-8">3</tspan></text>
<text
     id="text6856-2"
     y="117.96062"
     x="623.09204"
     style="font-style:normal;font-weight:normal;font-size:49.06845474px;line-height:125%;font-family:Sans;letter-spacing:0px;word-spacing:0px;fill:#000000;fill-opacity:1;stroke:none;stroke-width:1px;stroke-linecap:butt;stroke-linejoin:miter;stroke-opacity:1"
     xml:space="preserve"><tspan
       y="117.96062"
       x="623.09204"
       id="tspan6858-19">4</tspan></text>
<path
     id="path6920"
     d="m -326.0274,199.46453 68.00178,158.37061"
     style="fill:none;fill-rule:evenodd;stroke:#575757;stroke-width:1.22574544;stroke-linecap:round;stroke-linejoin:miter;stroke-miterlimit:4;stroke-dasharray:2.45149095, 4.90298189;stroke-dashoffset:0;stroke-opacity:1" /><path
     id="path6922"
     d="m -53.556138,199.6848 18.08921,159.4215"
     style="fill:none;fill-rule:evenodd;stroke:#575757;stroke-width:1.22574544;stroke-linecap:round;stroke-linejoin:miter;stroke-miterlimit:4;stroke-dasharray:2.45149095, 4.90298189;stroke-dashoffset:0;stroke-opacity:1" /><path
     id="path6924"
     d="M -46.067029,200.56586 149.13909,349.60955"
     style="fill:none;fill-rule:evenodd;stroke:#575757;stroke-width:1.22574544;stroke-linecap:round;stroke-linejoin:miter;stroke-miterlimit:4;stroke-dasharray:2.45149095, 4.90298189;stroke-dashoffset:0;stroke-opacity:1" /><path
     id="path6926"
     d="M 576.30328,350.38969 773.76971,201.44693"
     style="fill:none;fill-rule:evenodd;stroke:#575757;stroke-width:1.22574544;stroke-linecap:round;stroke-linejoin:miter;stroke-miterlimit:4;stroke-dasharray:2.45149095, 4.90298189;stroke-dashoffset:0;stroke-opacity:1" /><text
     id="text4322"
     y="522.66608"
     x="243.5029"
     style="font-style:normal;font-weight:normal;font-size:100.17889404px;line-height:125%;font-family:Sans;letter-spacing:0px;word-spacing:0px;fill:#ffffff;fill-opacity:1;stroke:none;stroke-width:1px;stroke-linecap:butt;stroke-linejoin:miter;stroke-opacity:1"
     xml:space="preserve"><tspan
       y="522.66608"
       x="243.5029"
       id="tspan4324">Main</tspan></text>
<text
     id="text4330"
     y="446.92883"
     x="-242.46101"
     style="font-style:normal;font-variant:normal;font-weight:normal;font-stretch:normal;font-size:46.39580536px;line-height:50%;font-family:'DejaVu Sans';-inkscape-font-specification:'DejaVu Sans, Normal';text-align:start;letter-spacing:0px;word-spacing:0px;writing-mode:lr-tb;text-anchor:start;fill:#000000;fill-opacity:1;stroke:none;stroke-width:1px;stroke-linecap:butt;stroke-linejoin:miter;stroke-opacity:1"
     xml:space="preserve"><tspan
       y="446.92883"
       x="-242.46101"
       id="tspan4332">External</tspan></text>
</svg>